<svg version="1.1" xmlns="http://www.w3.org/2000/svg" xmlns:xlink="http://www.w3.org/1999/xlink" width="600.00153" height="269.99922" viewBox="525,141.5,600.00153,269.99922"><defs><clipPath id="clip-1"><rect x="1655.17241" y="480.25078" transform="scale(0.39875,0.39875)" width="501.56251" height="501.56249" id="clip-1" fill="none" fill-rule="nonzero" stroke-width="1" stroke-linejoin="miter" stroke-miterlimit="10"/></clipPath><linearGradient x1="705.76567" y1="296.29276" x2="741.44817" y2="358.00702" gradientUnits="userSpaceOnUse" id="color-1"><stop offset="0" stop-color="#699ad7"/><stop offset="0.24345" stop-color="#7eb1dd"/><stop offset="1" stop-color="#7ebae4"/></linearGradient><linearGradient x1="728.69226" y1="246.9755" x2="693.08739" y2="308.73458" gradientUnits="userSpaceOnUse" id="color-2"><stop offset="0" stop-color="#699ad7"/><stop offset="0.24345" stop-color="#7eb1dd"/><stop offset="1" stop-color="#7ebae4"/></linearGradient><linearGradient x1="737.02222" y1="340.89289" x2="808.30958" y2="340.84807" gradientUnits="userSpaceOnUse" id="color-3"><stop offset="0" stop-color="#699ad7"/><stop offset="0.24345" stop-color="#7eb1dd"/><stop offset="1" stop-color="#7ebae4"/></linearGradient><linearGradient x1="814.35718" y1="286.71003" x2="778.67468" y2="224.99577" gradientUnits="userSpaceOnUse" id="color-4"><stop offset="0" stop-color="#699ad7"/><stop offset="0.24345" stop-color="#7eb1dd"/><stop offset="1" stop-color="#7ebae4"/></linearGradient><linearGradient x1="709.45374" y1="294.19347" x2="744.50304" y2="356.14752" gradientUnits="userSpaceOnUse" id="color-5"><stop offset="0" stop-color="#415e9a"/><stop offset="0.23169" stop-color="#4a6baf"/><stop offset="1" stop-color="#5277c3"/></linearGradient><linearGradient x1="782.87336" y1="246.15966" x2="711.69493" y2="245.53622" gradientUnits="userSpaceOnUse" id="color-6"><stop offset="0" stop-color="#415e9a"/><stop offset="0.23169" stop-color="#4a6baf"/><stop offset="1" stop-color="#5277c3"/></linearGradient><linearGradient x1="787.65783" y1="333.87" x2="823.78695" y2="272.53938" gradientUnits="userSpaceOnUse" id="color-7"><stop offset="0" stop-color="#415e9a"/><stop offset="0.23169" stop-color="#4a6baf"/><stop offset="1" stop-color="#5277c3"/></linearGradient><clipPath id="clip-2"><rect x="2925.73645" y="473.13338" transform="scale(0.29907,0.29907)" width="501.56251" height="501.56249" id="clip-1" fill="none" fill-rule="nonzero" stroke-width="1" stroke-linejoin="miter" stroke-miterlimit="10"/></clipPath><linearGradient x1="909.30649" y1="220.09079" x2="936.06837" y2="266.37648" gradientUnits="userSpaceOnUse" id="color-8"><stop offset="0" stop-color="#699ad7"/><stop offset="0.24345" stop-color="#7eb1dd"/><stop offset="1" stop-color="#7ebae4"/></linearGradient><linearGradient x1="926.50143" y1="183.10284" x2="899.79778" y2="229.42215" gradientUnits="userSpaceOnUse" id="color-9"><stop offset="0" stop-color="#699ad7"/><stop offset="0.24345" stop-color="#7eb1dd"/><stop offset="1" stop-color="#7ebae4"/></linearGradient><linearGradient x1="932.74891" y1="253.54089" x2="986.21443" y2="253.50727" gradientUnits="userSpaceOnUse" id="color-10"><stop offset="0" stop-color="#699ad7"/><stop offset="0.24345" stop-color="#7eb1dd"/><stop offset="1" stop-color="#7ebae4"/></linearGradient><linearGradient x1="990.75012" y1="212.90374" x2="963.98825" y2="166.61804" gradientUnits="userSpaceOnUse" id="color-11"><stop offset="0" stop-color="#699ad7"/><stop offset="0.24345" stop-color="#7eb1dd"/><stop offset="1" stop-color="#7ebae4"/></linearGradient><linearGradient x1="912.07254" y1="218.51632" x2="938.35952" y2="264.98186" gradientUnits="userSpaceOnUse" id="color-12"><stop offset="0" stop-color="#415e9a"/><stop offset="0.23169" stop-color="#4a6baf"/><stop offset="1" stop-color="#5277c3"/></linearGradient><linearGradient x1="967.13726" y1="182.49096" x2="913.75344" y2="182.02338" gradientUnits="userSpaceOnUse" id="color-13"><stop offset="0" stop-color="#415e9a"/><stop offset="0.23169" stop-color="#4a6baf"/><stop offset="1" stop-color="#5277c3"/></linearGradient><linearGradient x1="970.72561" y1="248.27371" x2="997.82245" y2="202.27575" gradientUnits="userSpaceOnUse" id="color-14"><stop offset="0" stop-color="#415e9a"/><stop offset="0.23169" stop-color="#4a6baf"/><stop offset="1" stop-color="#5277c3"/></linearGradient><clipPath id="clip-3"><rect x="2106.57251" y="708.21695" transform="scale(0.24922,0.24922)" width="501.56251" height="501.56249" id="clip-1" fill="none" fill-rule="nonzero" stroke-width="1" stroke-linejoin="miter" stroke-miterlimit="10"/></clipPath><linearGradient x1="553.60319" y1="241.99915" x2="575.90475" y2="280.57057" gradientUnits="userSpaceOnUse" id="color-15"><stop offset="0" stop-color="#699ad7"/><stop offset="0.24345" stop-color="#7eb1dd"/><stop offset="1" stop-color="#7ebae4"/></linearGradient><linearGradient x1="567.93231" y1="211.17587" x2="545.67927" y2="249.77529" gradientUnits="userSpaceOnUse" id="color-16"><stop offset="0" stop-color="#699ad7"/><stop offset="0.24345" stop-color="#7eb1dd"/><stop offset="1" stop-color="#7ebae4"/></linearGradient><linearGradient x1="573.13854" y1="269.87424" x2="617.69314" y2="269.84623" gradientUnits="userSpaceOnUse" id="color-17"><stop offset="0" stop-color="#699ad7"/><stop offset="0.24345" stop-color="#7eb1dd"/><stop offset="1" stop-color="#7ebae4"/></linearGradient><linearGradient x1="621.47289" y1="236.00995" x2="599.17133" y2="197.43854" gradientUnits="userSpaceOnUse" id="color-18"><stop offset="0" stop-color="#699ad7"/><stop offset="0.24345" stop-color="#7eb1dd"/><stop offset="1" stop-color="#7ebae4"/></linearGradient><linearGradient x1="555.90824" y1="240.6871" x2="577.81405" y2="279.40838" gradientUnits="userSpaceOnUse" id="color-19"><stop offset="0" stop-color="#415e9a"/><stop offset="0.23169" stop-color="#4a6baf"/><stop offset="1" stop-color="#5277c3"/></linearGradient><linearGradient x1="601.7955" y1="210.66597" x2="557.30898" y2="210.27632" gradientUnits="userSpaceOnUse" id="color-20"><stop offset="0" stop-color="#415e9a"/><stop offset="0.23169" stop-color="#4a6baf"/><stop offset="1" stop-color="#5277c3"/></linearGradient><linearGradient x1="604.78579" y1="265.48493" x2="627.3665" y2="227.1533" gradientUnits="userSpaceOnUse" id="color-21"><stop offset="0" stop-color="#415e9a"/><stop offset="0.23169" stop-color="#4a6baf"/><stop offset="1" stop-color="#5277c3"/></linearGradient><clipPath id="clip-4"><rect x="5140.9369" y="1336.6436" transform="scale(0.19938,0.19938)" width="501.56251" height="501.56249" id="clip-1" fill="none" fill-rule="nonzero" stroke-width="1" stroke-linejoin="miter" stroke-miterlimit="10"/></clipPath><linearGradient x1="1047.86583" y1="318.88678" x2="1065.70707" y2="349.74391" gradientUnits="userSpaceOnUse" id="color-22"><stop offset="0" stop-color="#699ad7"/><stop offset="0.24345" stop-color="#7eb1dd"/><stop offset="1" stop-color="#7ebae4"/></linearGradient><linearGradient x1="1059.32912" y1="294.22815" x2="1041.52669" y2="325.10769" gradientUnits="userSpaceOnUse" id="color-23"><stop offset="0" stop-color="#699ad7"/><stop offset="0.24345" stop-color="#7eb1dd"/><stop offset="1" stop-color="#7ebae4"/></linearGradient><linearGradient x1="1063.4941" y1="341.18685" x2="1099.13778" y2="341.16444" gradientUnits="userSpaceOnUse" id="color-24"><stop offset="0" stop-color="#699ad7"/><stop offset="0.24345" stop-color="#7eb1dd"/><stop offset="1" stop-color="#7ebae4"/></linearGradient><linearGradient x1="1102.16158" y1="314.09542" x2="1084.32033" y2="283.23829" gradientUnits="userSpaceOnUse" id="color-25"><stop offset="0" stop-color="#699ad7"/><stop offset="0.24345" stop-color="#7eb1dd"/><stop offset="1" stop-color="#7ebae4"/></linearGradient><linearGradient x1="1049.70986" y1="317.83714" x2="1067.23451" y2="348.81416" gradientUnits="userSpaceOnUse" id="color-26"><stop offset="0" stop-color="#415e9a"/><stop offset="0.23169" stop-color="#4a6baf"/><stop offset="1" stop-color="#5277c3"/></linearGradient><linearGradient x1="1086.41967" y1="293.82023" x2="1050.83046" y2="293.50852" gradientUnits="userSpaceOnUse" id="color-27"><stop offset="0" stop-color="#415e9a"/><stop offset="0.23169" stop-color="#4a6baf"/><stop offset="1" stop-color="#5277c3"/></linearGradient><linearGradient x1="1088.8119" y1="337.6754" x2="1106.87647" y2="307.0101" gradientUnits="userSpaceOnUse" id="color-28"><stop offset="0" stop-color="#415e9a"/><stop offset="0.23169" stop-color="#4a6baf"/><stop offset="1" stop-color="#5277c3"/></linearGradient><clipPath id="clip-5"><rect x="5485.89342" y="2078.36991" transform="scale(0.1595,0.1595)" width="501.56251" height="501.56249" id="clip-1" fill="none" fill-rule="nonzero" stroke-width="1" stroke-linejoin="miter" stroke-miterlimit="10"/></clipPath><linearGradient x1="893.31403" y1="373.42174" x2="907.58703" y2="398.10744" gradientUnits="userSpaceOnUse" id="color-29"><stop offset="0" stop-color="#699ad7"/><stop offset="0.24345" stop-color="#7eb1dd"/><stop offset="1" stop-color="#7ebae4"/></linearGradient><linearGradient x1="902.48466" y1="353.69483" x2="888.24272" y2="378.39846" gradientUnits="userSpaceOnUse" id="color-30"><stop offset="0" stop-color="#699ad7"/><stop offset="0.24345" stop-color="#7eb1dd"/><stop offset="1" stop-color="#7ebae4"/></linearGradient><linearGradient x1="905.81665" y1="391.26179" x2="934.33159" y2="391.24386" gradientUnits="userSpaceOnUse" id="color-31"><stop offset="0" stop-color="#699ad7"/><stop offset="0.24345" stop-color="#7eb1dd"/><stop offset="1" stop-color="#7ebae4"/></linearGradient><linearGradient x1="936.75063" y1="369.58864" x2="922.47763" y2="344.90294" gradientUnits="userSpaceOnUse" id="color-32"><stop offset="0" stop-color="#699ad7"/><stop offset="0.24345" stop-color="#7eb1dd"/><stop offset="1" stop-color="#7ebae4"/></linearGradient><linearGradient x1="894.78925" y1="372.58202" x2="908.80898" y2="397.36364" gradientUnits="userSpaceOnUse" id="color-33"><stop offset="0" stop-color="#415e9a"/><stop offset="0.23169" stop-color="#4a6baf"/><stop offset="1" stop-color="#5277c3"/></linearGradient><linearGradient x1="924.1571" y1="353.3685" x2="895.68573" y2="353.11912" gradientUnits="userSpaceOnUse" id="color-34"><stop offset="0" stop-color="#415e9a"/><stop offset="0.23169" stop-color="#4a6baf"/><stop offset="1" stop-color="#5277c3"/></linearGradient><linearGradient x1="926.07089" y1="388.45263" x2="940.52254" y2="363.92039" gradientUnits="userSpaceOnUse" id="color-35"><stop offset="0" stop-color="#415e9a"/><stop offset="0.23169" stop-color="#4a6baf"/><stop offset="1" stop-color="#5277c3"/></linearGradient></defs><g fill="none" fill-rule="none" stroke="none" stroke-width="none" stroke-linecap="butt" stroke-linejoin="none" stroke-miterlimit="none" stroke-dasharray="" stroke-dashoffset="0" font-family="none" font-weight="none" font-size="none" text-anchor="none" style="mix-blend-mode: normal"><g><g clip-path="url(#clip-1)" id="Group 1"><g id="Group 1" fill-rule="evenodd" stroke-linejoin="round" stroke-miterlimit="4"><g id="Group 1"><path d="M721.0378,293.64187l48.72357,84.40127l-22.39152,0.21005l-13.00801,-22.67547l-13.10086,22.55429l-11.12552,-0.00439l-5.6982,-9.84449l18.66475,-32.09383l-13.24959,-23.05685z" id="Path 1" fill="url(#color-1)" stroke-width="3.00018"/><path d="M738.62406,258.8761l-48.73185,84.39648l-11.37767,-19.2866l13.13352,-22.60301l-26.08302,-0.06853l-5.55896,-9.63717l5.67648,-9.85703l37.12645,0.11723l13.34303,-23.00291z" id="Path 1" fill="url(#color-2)" stroke-width="1.00006"/><path d="M742.36255,326.3414l97.45542,0.00479l-11.01385,19.49665l-26.14154,-0.07246l12.98216,22.62282l-5.56656,9.63279l-11.37468,0.01254l-18.4617,-32.21106l-26.59261,-0.05395z" id="Path 1" fill="url(#color-3)" stroke-width="1.00006"/><path d="M799.08505,289.36092l-48.72357,-84.40127l22.39152,-0.21005l13.00801,22.67547l13.10086,-22.55429l11.12552,0.00439l5.6982,9.84449l-18.66475,32.09383l13.24959,23.05685z" id="Path 1" fill="url(#color-4)" stroke-width="1.00006"/><path d="M721.0378,293.64187l48.72357,84.40127l-22.39152,0.21005l-13.00801,-22.67547l-13.10086,22.55429l-11.12552,-0.00439l-5.6982,-9.84449l18.66475,-32.09383l-13.24959,-23.05681z" id="Path 1" fill="url(#color-5)" stroke-width="3.00018"/><path d="M777.55903,256.46755l-97.45542,-0.00479l11.01385,-19.49665l26.14154,0.07246l-12.98216,-22.62282l5.56656,-9.63279l11.37468,-0.01254l18.4617,32.21106l26.59258,0.05393z" id="Path 1" fill="url(#color-6)" stroke-width="1.00006"/><path d="M781.3881,324.11371l48.73185,-84.39648l11.37767,19.2866l-13.13352,22.60301l26.08302,0.06853l5.55896,9.63717l-5.67648,9.85703l-37.12645,-0.11723l-13.34299,23.00289z" id="Path 1" fill="url(#color-7)" stroke-width="1.00006"/></g></g></g></g><g><g clip-path="url(#clip-2)" id="Group 1"><g id="Group 1 1" fill-rule="evenodd" stroke-linejoin="round" stroke-miterlimit="4"><g id="Group 1 1"><path d="M920.76059,218.10262l36.54267,63.30095l-16.79364,0.15754l-9.75601,-17.0066l-9.82564,16.91572l-8.34414,-0.00329l-4.27365,-7.38337l13.99856,-24.07038l-9.93719,-17.29264z" id="Path 1 1" fill="url(#color-8)" stroke-width="3.00018"/><path d="M933.95028,192.02829l-36.54889,63.29736l-8.53325,-14.46495l9.85014,-16.95225l-19.56227,-0.0514l-4.16922,-7.22788l4.25736,-7.39277l27.84484,0.08792l10.00727,-17.25218z" id="Path 1 1" fill="url(#color-9)" stroke-width="1.00006"/><path d="M936.75415,242.62727l73.09157,0.00359l-8.26039,14.62249l-19.60615,-0.05435l9.73662,16.96712l-4.17492,7.22459l-8.53101,0.0094l-13.84628,-24.1583l-19.94446,-0.04046z" id="Path 1 1" fill="url(#color-10)" stroke-width="1.00006"/><path d="M979.29603,214.8919l-36.54267,-63.30095l16.79364,-0.15754l9.75601,17.0066l9.82564,-16.91572l8.34414,0.00329l4.27365,7.38337l-13.99856,24.07038l9.93719,17.29264z" id="Path 1 1" fill="url(#color-11)" stroke-width="1.00006"/><path d="M920.76059,218.10262l36.54267,63.30095l-16.79364,0.15754l-9.75601,-17.0066l-9.82564,16.91572l-8.34414,-0.00329l-4.27365,-7.38337l13.99856,-24.07038l-9.93719,-17.29261z" id="Path 1 1" fill="url(#color-12)" stroke-width="3.00018"/><path d="M963.15152,190.22188l-73.09157,-0.00359l8.26039,-14.62249l19.60615,0.05435l-9.73662,-16.96712l4.17492,-7.22459l8.53101,-0.0094l13.84628,24.1583l19.94444,0.04044z" id="Path 1 1" fill="url(#color-13)" stroke-width="1.00006"/><path d="M966.02331,240.9565l36.54889,-63.29736l8.53325,14.46495l-9.85014,16.95225l19.56227,0.0514l4.16922,7.22788l-4.25736,7.39277l-27.84484,-0.08792l-10.00724,17.25217z" id="Path 1 1" fill="url(#color-14)" stroke-width="1.00006"/></g></g></g></g><g><g clip-path="url(#clip-3)" id="Group 1"><g id="Group 1 1 1" fill-rule="evenodd" stroke-linejoin="round" stroke-miterlimit="4"><g id="Group 1 1 1"><path d="M563.14827,240.34235l30.45223,52.75079l-13.9947,0.13128l-8.13001,-14.17217l-8.18804,14.09643l-6.95345,-0.00274l-3.56137,-6.15281l11.66547,-20.05865l-8.28099,-14.41053z" id="Path 1 1 1" fill="url(#color-15)" stroke-width="3.00018"/><path d="M574.13969,218.61374l-30.45741,52.7478l-7.11104,-12.05412l8.20845,-14.12688l-16.30189,-0.04283l-3.47435,-6.02323l3.5478,-6.16064l23.20403,0.07327l8.33939,-14.37682z" id="Path 1 1 1" fill="url(#color-16)" stroke-width="1.00006"/><path d="M576.47624,260.77956l60.90964,0.00299l-6.88366,12.1854l-16.33846,-0.04529l8.11385,14.13926l-3.4791,6.02049l-7.10917,0.00784l-11.53856,-20.13191l-16.62038,-0.03372z" id="Path 1 1 1" fill="url(#color-17)" stroke-width="1.00006"/><path d="M611.92781,237.66675l-30.45223,-52.75079l13.9947,-0.13128l8.13001,14.17217l8.18804,-14.09643l6.95345,0.00274l3.56137,6.15281l-11.66547,20.05865l8.28099,14.41053z" id="Path 1 1 1" fill="url(#color-18)" stroke-width="1.00006"/><path d="M563.14827,240.34235l30.45223,52.75079l-13.9947,0.13128l-8.13001,-14.17217l-8.18804,14.09643l-6.95345,-0.00274l-3.56137,-6.15281l11.66547,-20.05865l-8.28099,-14.41051z" id="Path 1 1 1" fill="url(#color-19)" stroke-width="3.00018"/><path d="M598.47405,217.1084l-60.90964,-0.00299l6.88366,-12.1854l16.33846,0.04529l-8.11385,-14.13926l3.4791,-6.02049l7.10917,-0.00784l11.53856,20.13191l16.62036,0.0337z" id="Path 1 1 1" fill="url(#color-20)" stroke-width="1.00006"/><path d="M600.86721,259.38725l30.45741,-52.7478l7.11104,12.05412l-8.20845,14.12688l16.30189,0.04283l3.47435,6.02323l-3.5478,6.16064l-23.20403,-0.07327l-8.33937,14.37681z" id="Path 1 1 1" fill="url(#color-21)" stroke-width="1.00006"/></g></g></g></g><g><g clip-path="url(#clip-4)" id="Group 1"><g id="Group 1 1 1 1" fill-rule="evenodd" stroke-linejoin="round" stroke-miterlimit="4"><g id="Group 1 1 1 1"><path d="M1055.50189,317.56134l24.36178,42.20063l-11.19576,0.10503l-6.50401,-11.33773l-6.55043,11.27715l-5.56276,-0.00219l-2.8491,-4.92224l9.33237,-16.04692l-6.62479,-11.52843z" id="Path 1 1 1 1" fill="url(#color-22)" stroke-width="3.00018"/><path d="M1064.29502,300.17846l-24.36593,42.19824l-5.68883,-9.6433l6.56676,-11.3015l-13.04151,-0.03426l-2.77948,-4.81859l2.83824,-4.92851l18.56322,0.05861l6.67151,-11.50145z" id="Path 1 1 1 1" fill="url(#color-23)" stroke-width="1.00006"/><path d="M1066.16426,333.9111l48.72771,0.00239l-5.50692,9.74832l-13.07077,-0.03623l6.49108,11.31141l-2.78328,4.81639l-5.68734,0.00627l-9.23085,-16.10553l-13.29631,-0.02697z" id="Path 1 1 1 1" fill="url(#color-24)" stroke-width="1.00006"/><path d="M1094.52552,315.42086l-24.36178,-42.20063l11.19576,-0.10503l6.50401,11.33773l6.55043,-11.27715l5.56276,0.00219l2.8491,4.92224l-9.33237,16.04692l6.62479,11.52843z" id="Path 1 1 1 1" fill="url(#color-25)" stroke-width="1.00006"/><path d="M1055.50189,317.56134l24.36178,42.20063l-11.19576,0.10503l-6.50401,-11.33773l-6.55043,11.27715l-5.56276,-0.00219l-2.8491,-4.92224l9.33237,-16.04692l-6.62479,-11.52841z" id="Path 1 1 1 1" fill="url(#color-26)" stroke-width="3.00018"/><path d="M1083.76251,298.97418l-48.72771,-0.00239l5.50692,-9.74832l13.07077,0.03623l-6.49108,-11.31141l2.78328,-4.81639l5.68734,-0.00627l9.23085,16.10553l13.29629,0.02696z" id="Path 1 1 1 1" fill="url(#color-27)" stroke-width="1.00006"/><path d="M1085.67704,332.79726l24.36593,-42.19824l5.68883,9.6433l-6.56676,11.3015l13.04151,0.03426l2.77948,4.81859l-2.83824,4.92851l-18.56322,-0.05861l-6.6715,11.50144z" id="Path 1 1 1 1" fill="url(#color-28)" stroke-width="1.00006"/></g></g></g></g><g><g clip-path="url(#clip-5)" id="Group 1"><g id="Group 1 1 1 1 1" fill-rule="evenodd" stroke-linejoin="round" stroke-miterlimit="4"><g id="Group 1 1 1 1 1"><path d="M899.42288,372.36138l19.48943,33.76051l-8.95661,0.08402l-5.20321,-9.07019l-5.24034,9.02172l-4.45021,-0.00175l-2.27928,-3.9378l7.4659,-12.83753l-5.29984,-9.22274z" id="Path 1 1 1 1 1" fill="url(#color-29)" stroke-width="3.00018"/><path d="M906.45738,358.45507l-19.49274,33.75859l-4.55107,-7.71464l5.25341,-9.0412l-10.43321,-0.02741l-2.22358,-3.85487l2.27059,-3.94281l14.85058,0.04689l5.33721,-9.20116z" id="Path 1 1 1 1 1" fill="url(#color-30)" stroke-width="1.00006"/><path d="M907.95278,385.44119l38.98217,0.00191l-4.40554,7.79866l-10.45662,-0.02899l5.19286,9.04913l-2.22662,3.85312l-4.54987,0.00502l-7.38468,-12.88443l-10.63705,-0.02158z" id="Path 1 1 1 1 1" fill="url(#color-31)" stroke-width="1.00006"/><path d="M930.64178,370.649l-19.48943,-33.76051l8.95661,-0.08402l5.20321,9.07019l5.24034,-9.02172l4.45021,0.00175l2.27928,3.9378l-7.4659,12.83753l5.29984,9.22274z" id="Path 1 1 1 1 1" fill="url(#color-32)" stroke-width="1.00006"/><path d="M899.42288,372.36138l19.48943,33.76051l-8.95661,0.08402l-5.20321,-9.07019l-5.24034,9.02172l-4.45021,-0.00175l-2.27928,-3.9378l7.4659,-12.83753l-5.29984,-9.22273z" id="Path 1 1 1 1 1" fill="url(#color-33)" stroke-width="3.00018"/><path d="M922.03137,357.49165l-38.98217,-0.00191l4.40554,-7.79866l10.45662,0.02899l-5.19286,-9.04913l2.22662,-3.85312l4.54987,-0.00502l7.38468,12.88443l10.63703,0.02157z" id="Path 1 1 1 1 1" fill="url(#color-34)" stroke-width="1.00006"/><path d="M923.563,384.55012l19.49274,-33.75859l4.55107,7.71464l-5.25341,9.0412l10.43321,0.02741l2.22358,3.85487l-2.27059,3.94281l-14.85058,-0.04689l-5.3372,9.20116z" id="Path 1 1 1 1 1" fill="url(#color-35)" stroke-width="1.00006"/></g></g></g></g></g></svg>